<svg width="34" height="35" viewBox="0 0 34 35" fill="none" xmlns="http://www.w3.org/2000/svg">
    <rect x="0.75" y="1.73096" width="32.5" height="32.5" rx="16.25" fill="white" stroke="#D9D9D9" stroke-width="1.5"/>
    <path fill-rule="evenodd" clip-rule="evenodd" d="M21.6105 12.1897C21.8339 11.9368 22.1962 11.9368 22.4197 12.1897L25.0897 15.2119C25.2533 15.3972 25.3023 15.6757 25.2137 15.9176C25.1252 16.1597 24.9166 16.3175 24.6851 16.3175H10.5721C10.2562 16.3175 10 16.0275 10 15.6699C10 15.3122 10.2562 15.0222 10.5721 15.0222H23.3039L21.6105 13.1056C21.3871 12.8526 21.3871 12.4426 21.6105 12.1897ZM10.0436 21.0348C10.1321 20.7928 10.3408 20.635 10.5722 20.635H24.6851C25.0011 20.635 25.2573 20.9249 25.2573 21.2826C25.2573 21.6403 25.0011 21.9302 24.6851 21.9302H11.9535L13.6468 23.8469C13.8702 24.0998 13.8702 24.5099 13.6468 24.7628C13.4233 25.0157 13.0611 25.0157 12.8376 24.7628L10.1676 21.7406C10.004 21.5553 9.95501 21.2768 10.0436 21.0348Z" fill="#AA9113"/>
</svg>
