<svg width="21" height="21" viewBox="0 0 21 21" fill="none" xmlns="http://www.w3.org/2000/svg">
<g id="plane (4)">
<path id="Combined Shape" fill-rule="evenodd" clip-rule="evenodd" d="M20.5925 4.46197C19.433 3.72486 17.9815 3.70675 16.8037 4.41443L12.5008 6.99979L6.09165 2.13527L4.38401 3.16127L9.08555 9.0519L5.16284 11.4089L3.28297 10.2142L1.57533 11.2403L4.48125 14.1426L5.67955 18.0709L7.38718 17.0448L7.21494 14.8242L11.1376 12.4672L14.1315 19.3839L15.8392 18.3578L14.553 10.4151L18.8558 7.82972C20.0336 7.12204 20.699 5.83191 20.5925 4.46197ZM17.6292 12.6339C17.3459 12.1623 16.734 12.0097 16.2624 12.2931L15.9014 12.51L16.2444 14.6281L17.2884 14.0007C17.76 13.7174 17.9125 13.1055 17.6292 12.6339ZM10.6191 2.90106C11.0907 2.61768 11.7027 2.77026 11.986 3.24185C12.2693 3.71345 12.1168 4.32538 11.6452 4.60868L11.2842 4.82561L9.57509 3.52841L10.6191 2.90106Z" fill="#FFFFFF"/>
</g>
</svg>
