<svg width="17" height="16" viewBox="0 0 17 16" fill="none" xmlns="http://www.w3.org/2000/svg">
    <g id="clock (2)">
        <path id="Shape" fill-rule="evenodd" clip-rule="evenodd" d="M0 7.99776C0 3.58072 3.80458 0 8.49776 0C13.1889 0.00471967 16.9905 3.58269 16.9955 7.99776C16.9955 12.4148 13.1909 15.9955 8.49776 15.9955C3.80458 15.9955 0 12.4148 0 7.99776ZM8.49775 8.56903C8.83298 8.56903 9.10474 8.31326 9.10474 7.99775V3.4276C9.10474 3.11209 8.83302 2.85632 8.49778 2.85632C8.16254 2.85632 7.89079 3.11209 7.89079 3.4276V7.42647H3.64189C3.30665 7.42647 3.03489 7.68223 3.03489 7.99775C3.03489 8.31326 3.30665 8.56903 3.64189 8.56903H8.49775Z" fill="#FFFFFF"/>
    </g>
</svg>
