<svg width="18" height="19" viewBox="0 0 18 19" fill="none" xmlns="http://www.w3.org/2000/svg">
    <path fill-rule="evenodd" clip-rule="evenodd" d="M0 17.0116V4.89016C0 3.80427 0.883436 2.92083 1.96933 2.92083H4.17791V1.69875C4.17791 1.3012 4.49816 0.980957 4.89571 0.980957H6.0184C6.41595 0.980957 6.7362 1.3012 6.7362 1.69875V2.91715H11.2638V1.69875C11.2638 1.3012 11.584 0.980957 11.9816 0.980957H13.1043C13.5018 0.980957 13.8221 1.3012 13.8221 1.69875V2.91715H16.0307C17.1166 2.91715 18 3.80059 18 4.88648V17.0116C18 18.0975 17.1166 18.981 16.0307 18.981H1.96933C0.883436 18.981 0 18.0975 0 17.0116ZM7.01227 11.1441H5.75706C5.57301 11.1441 5.42209 10.9932 5.41841 10.8055V9.55028C5.41841 9.36255 5.56933 9.21163 5.75706 9.21163H7.01227C7.2 9.21163 7.35092 9.36255 7.35092 9.55028V10.8055C7.35092 10.9932 7.2 11.1441 7.01227 11.1441ZM2.79386 9.55396V10.8092C2.79386 10.9932 2.94479 11.1441 3.13252 11.1478H4.38773C4.57546 11.1478 4.72638 10.9969 4.72638 10.8092V9.55396C4.72638 9.36623 4.57546 9.21531 4.38773 9.21531H3.13252C2.94479 9.21531 2.79386 9.36623 2.79386 9.55396ZM8.3816 11.1441H9.63681C9.82454 11.1441 9.97546 10.9932 9.97546 10.8055V9.55028C9.97546 9.36255 9.82454 9.21163 9.63681 9.21163H8.3816C8.19386 9.21163 8.04294 9.36255 8.04294 9.55028V10.8055C8.04663 10.9932 8.19755 11.1441 8.3816 11.1441ZM7.01227 13.7024H5.75706C5.57301 13.7024 5.42209 13.5515 5.41841 13.3638V12.1086C5.41841 11.9208 5.56933 11.7699 5.75706 11.7699H7.01227C7.2 11.7699 7.35092 11.9208 7.35092 12.1086V13.3638C7.35092 13.5515 7.2 13.7024 7.01227 13.7024ZM8.3816 13.7024H9.63681C9.82454 13.7024 9.97546 13.5515 9.97546 13.3638V12.1086C9.97546 11.9208 9.82454 11.7699 9.63681 11.7699H8.3816C8.19386 11.7699 8.04294 11.9208 8.04294 12.1086V13.3638C8.04663 13.5515 8.19755 13.7024 8.3816 13.7024ZM12.265 13.7024H11.0098C10.8221 13.7024 10.6712 13.5515 10.6712 13.3638V12.1086C10.6712 11.9208 10.8221 11.7699 11.0098 11.7699H12.265C12.4528 11.7699 12.6037 11.9208 12.6037 12.1086V13.3638C12.6037 13.5515 12.4528 13.7024 12.265 13.7024ZM3.13252 13.7024H4.38773C4.57546 13.7024 4.72638 13.5515 4.72638 13.3638V12.1086C4.72638 11.9208 4.57546 11.7699 4.38773 11.7699H3.13252C2.94479 11.7699 2.79386 11.9208 2.79386 12.1086V13.3638C2.79386 13.5515 2.94479 13.7024 3.13252 13.7024ZM9.63681 16.257H8.3816C8.19755 16.257 8.04663 16.1061 8.04294 15.9184V14.6632C8.04294 14.4754 8.19386 14.3245 8.3816 14.3245H9.63681C9.82454 14.3245 9.97546 14.4754 9.97546 14.6632V15.9184C9.97546 16.1061 9.82454 16.257 9.63681 16.257ZM5.75706 16.257H7.01227C7.2 16.257 7.35092 16.1061 7.35092 15.9184V14.6632C7.35092 14.4754 7.2 14.3245 7.01227 14.3245H5.75706C5.56933 14.3245 5.41841 14.4754 5.41841 14.6632V15.9184C5.42209 16.1061 5.57301 16.257 5.75706 16.257ZM12.265 11.1441H11.0098C10.8221 11.1441 10.6712 10.9932 10.6712 10.8055V9.55028C10.6712 9.36255 10.8221 9.21163 11.0098 9.21163H12.265C12.4528 9.21163 12.6037 9.36255 12.6037 9.55028V10.8055C12.6037 10.9932 12.4528 11.1441 12.265 11.1441ZM13.6344 13.7024H14.8896C15.0773 13.7024 15.2282 13.5515 15.2282 13.3638V12.1086C15.2282 11.9208 15.0773 11.7699 14.8896 11.7699H13.6344C13.4466 11.7699 13.2957 11.9208 13.2957 12.1086V13.3638C13.2994 13.5515 13.4503 13.7024 13.6344 13.7024ZM12.265 16.257H11.0098C10.8221 16.257 10.6712 16.1061 10.6712 15.9184V14.6632C10.6712 14.4754 10.8221 14.3245 11.0098 14.3245H12.265C12.4528 14.3245 12.6037 14.4754 12.6037 14.6632V15.9184C12.6037 16.1061 12.4528 16.257 12.265 16.257ZM1.97301 17.4607C1.72638 17.4607 1.52393 17.2583 1.52393 17.0116V8.03372H16.4798V17.0116C16.4798 17.2583 16.2773 17.4607 16.0307 17.4607H1.97301Z" fill="#FFF"/>
</svg>
