<svg width="24" height="24" viewBox="0 0 24 24" fill="none" xmlns="http://www.w3.org/2000/svg">
    <path fill-rule="evenodd" clip-rule="evenodd" d="M21.765 9.89356C22.2159 10.5375 22.0594 11.425 21.4155 11.8759L10.3178 19.6465L3.88865 10.4123L14.9618 2.65902C15.6058 2.20902 16.4927 2.3654 16.9439 3.00852L17.7679 4.18511C16.9311 5.17721 16.8668 6.60835 17.6114 7.67166C18.3557 8.73492 19.7227 9.1641 20.9412 8.717L21.765 9.89356ZM14.2366 9.05453C14.7182 8.71737 15.3382 8.68178 15.855 8.96175C15.9413 9.54322 15.6959 10.1137 15.2143 10.4508L13.4552 11.6826L14.2411 15.0339L13.543 15.5227L12.0589 12.6603L10.4552 13.7832L10.5949 14.7258L9.8968 15.2146L9.26818 13.5739L7.94142 12.422L8.63956 11.9332L9.47747 12.3869L11.0812 11.264L8.89897 8.89036L9.59711 8.40154L12.4775 10.2863L14.2366 9.05453ZM14.2407 12.433C14.4336 12.298 14.6993 12.3449 14.8342 12.5377C14.9692 12.7305 14.9224 12.9962 14.7296 13.1312L14.3028 13.43L14.0932 12.5364L14.2407 12.433ZM12.1456 8.69789C12.0106 8.50508 11.7449 8.45823 11.5521 8.59324L11.1253 8.89213L11.8934 9.39472L12.041 9.29137C12.2338 9.1564 12.2806 8.89069 12.1456 8.69789Z" fill="white"/>
    <path d="M9.6913 20.0853L3.26207 10.8513L1.97551 11.752C1.3318 12.2029 1.17531 13.0904 1.62597 13.7343L6.44708 20.6195C6.89856 21.2625 7.78524 21.4188 8.42939 20.9691L9.6913 20.0853Z" fill="white"/>
</svg>
