<svg width="17" height="15" viewBox="0 0 17 15" fill="none" xmlns="http://www.w3.org/2000/svg">
    <path fill-rule="evenodd" clip-rule="evenodd" d="M0.974026 0H15.6494C16.1864 0 16.6234 0.437013 16.6234 0.974026V10.6494C16.6234 11.1864 16.1864 11.6234 15.6494 11.6234H0.974026C0.437013 11.6234 0 11.1864 0 10.6494V0.974026C0 0.437013 0.437013 0 0.974026 0ZM11.0313 4.25621C11.4347 3.85278 11.5732 3.26615 11.3927 2.72494C10.8515 2.54442 10.2648 2.68293 9.86142 3.08636L8.38756 4.56022L5.31671 3.24416L4.73178 3.82908L7.21771 5.73008L5.87406 7.07374L4.9967 6.78128L4.41176 7.3662L5.87407 8.24359L6.75146 9.70589L7.3364 9.12098L7.04392 8.24359L8.38758 6.89993L10.2886 9.38586L10.8735 8.80093L9.55742 5.73008L11.0313 4.25621ZM7.80265 3.68287C7.96418 3.52133 7.96418 3.25947 7.80265 3.09794C7.64112 2.93643 7.37927 2.93643 7.21773 3.09794L6.86011 3.45556L7.67902 3.8065L7.80265 3.68287ZM11.0197 6.31501C11.1813 6.47652 11.1813 6.7384 11.0197 6.89993L10.6621 7.25754L10.3112 6.43864L10.4348 6.31501C10.5963 6.15347 10.8582 6.15347 11.0197 6.31501Z" fill="white"/>
    <path d="M13.5065 14.026H10.8766V12.5974H5.74677V14.026H3.1169C2.84806 14.026 2.62988 14.2442 2.62988 14.513C2.62988 14.7818 2.84806 15 3.1169 15H13.5065C13.7753 15 13.9935 14.7818 13.9935 14.513C13.9935 14.2442 13.7753 14.026 13.5065 14.026Z" fill="white"/>
</svg>
