<?xml version="1.0" encoding="UTF-8"?>
<svg width="19px" height="19px" viewBox="0 0 19 19" version="1.1" xmlns="http://www.w3.org/2000/svg" xmlns:xlink="http://www.w3.org/1999/xlink">
    <!-- Generator: Sketch 63.1 (92452) - https://sketch.com -->
    <title>icon/search</title>
    <desc>Created with Sketch.</desc>
    <g id="Page-1" stroke="none" stroke-width="1" fill="none" fill-rule="evenodd">
        <g id="Contour-Home.5-Copy" transform="translate(-1150.000000, -25.000000)" fill="#FFFFFF">
            <g id="icon/search" transform="translate(1150.000000, 25.000000)">
                <path d="M12.588518,11.8367772 L12.2657355,11.513956 C13.3416772,10.3302783 13.9872422,8.71617228 13.9872422,6.99445924 C13.9872422,3.12060489 10.8670113,1.72306613e-13 6.99362111,1.72306613e-13 C3.12023096,1.72306613e-13 -3.90798505e-14,3.12060489 -3.90798505e-14,6.99445924 C-3.90798505e-14,10.8683136 3.12023096,13.9889185 6.99362111,13.9889185 C8.71512785,13.9889185 10.3290404,13.3432761 11.5125763,12.2672054 L11.8353588,12.5900266 L11.8353588,13.4508832 L16.4212728,18.0373468 C16.8596734,18.4757999 17.5732469,18.473014 18.0125673,18.0336409 L18.03148,18.014726 C18.471927,17.5742261 18.4760022,16.8641104 18.0351854,16.4232408 L13.4492714,11.8367772 L12.588518,11.8367772 Z M6.87931034,11.137931 C4.51340996,11.137931 2.62068966,9.24521073 2.62068966,6.87931034 C2.62068966,4.51340996 4.51340996,2.62068966 6.87931034,2.62068966 C9.24521073,2.62068966 11.137931,4.51340996 11.137931,6.87931034 C11.137931,9.24521073 9.24521073,11.137931 6.87931034,11.137931 L6.87931034,11.137931 Z" id="Shape"></path>
            </g>
        </g>
    </g>
</svg>