<svg width="71" height="71" viewBox="0 0 71 71" fill="none" xmlns="http://www.w3.org/2000/svg">
<path d="M35.3853 0C28.3867 0 21.5454 2.07531 15.7263 5.96349C9.9072 9.85168 5.37179 15.3781 2.69356 21.8439C0.0153318 28.3097 -0.685414 35.4245 0.679934 42.2886C2.04528 49.1527 5.4154 55.4577 10.3641 60.4064C15.3128 65.3551 21.6179 68.7253 28.482 70.0906C35.346 71.456 42.4608 70.7552 48.9266 68.077C55.3925 65.3988 60.9189 60.8633 64.8071 55.0443C68.6952 49.2252 70.7706 42.3838 70.7706 35.3853C70.7706 26.0005 67.0425 17.0001 60.4064 10.3641C53.7704 3.72808 44.77 0 35.3853 0ZM54.2077 37.6474L23.8775 52.8125C23.4921 53.0051 23.0638 53.096 22.6333 53.0765C22.2029 53.057 21.7846 52.9278 21.4181 52.7011C21.0517 52.4745 20.7493 52.1579 20.5396 51.7815C20.3299 51.405 20.22 50.9813 20.2202 50.5504V20.2202C20.2204 19.7895 20.3307 19.366 20.5405 18.9899C20.7504 18.6139 21.0528 18.2976 21.4192 18.0713C21.7856 17.8449 22.2037 17.7159 22.634 17.6965C23.0642 17.6772 23.4922 17.768 23.8775 17.9606L54.2077 33.1257C54.627 33.3358 54.9795 33.6584 55.2259 34.0575C55.4723 34.4566 55.6027 34.9163 55.6027 35.3853C55.6027 35.8542 55.4723 36.314 55.2259 36.713C54.9795 37.1121 54.627 37.4347 54.2077 37.6449V37.6474Z" fill="white"/>
</svg>
