<svg width="24" height="29" viewBox="0 0 24 29" fill="none" xmlns="http://www.w3.org/2000/svg">
<path d="M7.59961 8.84009H9.35961V22.9201H7.59961V8.84009Z" fill="#EF4035"/>
<path d="M11.1211 8.84009H12.8811V22.9201H11.1211V8.84009Z" fill="#EF4035"/>
<path d="M14.6406 8.84009H16.4006V22.9201H14.6406V8.84009Z" fill="#EF4035"/>
<path d="M0.560547 3.56006H23.4405V5.32006H0.560547V3.56006Z" fill="#EF4035"/>
<path d="M16.3996 3.56004H14.6396V2.68004C14.6396 2.15204 14.2876 1.80004 13.7596 1.80004H10.2396C9.71161 1.80004 9.35961 2.15204 9.35961 2.68004V3.56004H7.59961V2.68004C7.59961 1.18404 8.74361 0.0400391 10.2396 0.0400391H13.7596C15.2556 0.0400391 16.3996 1.18404 16.3996 2.68004V3.56004Z" fill="#EF4035"/>
<path d="M17.2803 28.2001H6.72031C5.31231 28.2001 4.08031 27.0561 3.90431 25.6481L2.32031 4.52805L4.08031 4.35205L5.66431 25.4721C5.66431 26.0001 6.19231 26.4401 6.72031 26.4401H17.2803C17.8083 26.4401 18.2483 26.0001 18.3363 25.4721L19.9203 4.35205L21.6803 4.52805L20.0963 25.6481C19.9203 27.0561 18.6883 28.2001 17.2803 28.2001Z" fill="#EF4035"/>
</svg>
